<svg xmlns="http://www.w3.org/2000/svg" viewBox="0 0 1600 300" enable-background="new 0 0 1600 300"><path fill="#00A4DE" d="M255.9 0h-211.8c-24.3 0-44.1 19.8-44.1 44.1v211.8c0 24.3 19.8 44.1 44.1 44.1h211.8c24.4 0 44.1-19.8 44.1-44.1v-211.8c0-24.3-19.8-44.1-44.1-44.1z"/><path fill="#008FDE" d="M0 150v105.9c0 24.3 19.8 44.1 44.1 44.1h211.8c24.4 0 44.1-19.8 44.1-44.1v-105.9h-300z"/><path fill="#fff" d="M194.1 83.8h30.9v88.2h-30.9zM165.5 154.7c-5.2-5.8-12.5-9.1-21.8-9.8 8.3-2.3 14.3-5.6 18.1-10 3.8-4.4 5.7-10.3 5.7-17.7 0-5.9-1.3-11.1-3.8-15.6-2.6-4.5-6.2-8.1-11.1-10.7-4.2-2.3-9.3-4-15.1-4.9-5.9-.9-16.2-1.4-31-1.4h-36v131.1h37c14.9 0 25.6-.5 32.2-1.5 6.6-1 12.1-2.8 16.5-5.1 5.5-2.9 9.7-7 12.6-12.4 3-5.3 4.4-11.5 4.4-18.5.2-9.9-2.4-17.7-7.7-23.5zm-61.7-41.2h7.7c8.9 0 14.8 1 17.9 3 3 2 4.6 5.5 4.6 10.4 0 4.7-1.6 8.1-4.9 10-3.3 1.9-9.3 2.9-18.1 2.9h-7.1v-26.3zm30.4 75.2c-3.5 2.1-9.5 3.2-18 3.2h-12.5v-28.7h13c8.7 0 14.7 1.1 17.9 3.3 3.2 2.2 4.8 6 4.8 11.6.1 4.9-1.6 8.5-5.2 10.6z"/><g fill="#F9F9F9"><path d="M209.6 180.9c-9.8 0-17.6 7.9-17.6 17.6 0 9.8 7.9 17.6 17.6 17.6 9.7 0 17.6-7.9 17.6-17.6 0-9.7-7.9-17.6-17.6-17.6zM159.9 150h-89.3v65.6h37c14.9 0 25.6-.5 32.2-1.5 6.6-1 12.1-2.8 16.5-5.1 5.5-2.9 9.7-7 12.6-12.4 3-5.3 4.4-11.5 4.4-18.5 0-9.7-2.6-17.5-7.9-23.4-1.5-1.9-3.5-3.4-5.5-4.7zm-25.7 38.7c-3.5 2.1-9.5 3.2-18 3.2h-12.5v-28.7h13c8.7 0 14.7 1.1 17.9 3.3 3.2 2.2 4.8 6 4.8 11.6.1 4.9-1.6 8.5-5.2 10.6zM194.1 150h30.9v22.1h-30.9z"/></g><path fill="#777" d="M414.7 205.8c-.1-1.3-.1-2-.6-4.9-2.4-14.8-3.4-27-3.4-40.3 0-11.4.8-22.6 2.4-33.6.6-3.8.6-3.8 3.4-18.1.9-4.4 1.4-8.1 1.4-9.4v-.5l17.1 1.8c-5.2 11-10 41.6-10.1 63.6-.1 4.6-.1 4.6-.1 6.6v2c0 1 0 1.3-.1 2.7h.1c.6-1.4.6-1.4 1.5-3.7.2-.9.9-2.3 1.5-4.3 1.1-2.7 1.1-2.7 2.4-5.7.3-.4.4-.8 1.5-3.9l10.5 4.7c-7.5 14.7-12.6 30.4-12.6 38.8 0 .9 0 1 .3 3.4l-15.2.8zm28.6-83.1c6 1.5 12.5 2 22.9 2 4.4 0 7.2 0 11.7-.2 0-7.5-.1-13.8-.1-19 0-2.8-.1-4.7-.4-6.1l15.8-.4c-.6 3.6-.9 9.6-.9 18.6v5.8c6.6-.8 12.2-1.8 17.1-3 .8-.3.8-.3 2.8-1l1-.3.5 14.3c-1.3.1-1.4.1-3.7.6-4.3.9-10.9 2-17.6 2.8v2.8c0 7.1 0 7.3 1.3 28.6 9.1 4.3 12.3 6.1 19.9 11.5 1.6 1.1 2.3 1.5 3.6 2.2l-6.1 15.3c-2.2-2.5-6-5.8-9.5-8.1-4.3-2.8-7.2-4.7-8-5.2v1.8c0 2.8-.4 5.3-1 7.1-2.9 7.5-11.8 11.9-24.1 11.9-16.6 0-26.8-7.9-26.8-20.8 0-12.3 10.8-20.9 26.1-20.9 4.7 0 7.9.5 11.3 1.8-.4-3.2-.5-9.4-1-27-5.1.1-8.1.3-11.4.3-4.7 0-9.8-.1-15.7-.6-1.8 0-3.2-.1-3.8-.1-1.1-.1-1.9-.1-2.2-.1-.6-.1-1-.1-1.3-.1-.1 0-.4 0-.8.1l.4-14.6zm25.8 53.2c-8.1 0-13.2 3.2-13.2 8.4 0 4.7 4.6 7.9 11.7 7.9 4.7 0 8.4-1.4 10.3-3.9 1.1-1.5 1.6-3.4 1.6-6.9v-3.4c-4.2-1.6-6.6-2.1-10.4-2.1zM544 113c2.8.1 4.2.1 4.8.1 2.3 0 2.3 0 20.9-1.3 7.1-.4 28.1-1.5 63.3-3.2 10.4-.5 12.3-.6 14.6-1.3l.9 16.2c-1.4-.1-1.4-.1-2.7-.1-7.6 0-17 2.5-25.1 6.8-16.1 8.4-25.6 21-25.6 33.8 0 9.9 6.2 17.5 16.9 20.7 6.2 1.9 14.3 3.3 18.9 3.3.1 0 1.3 0 2.5-.1l-2.3 17.2c-1.5-.4-2.2-.5-4.3-.8-14-1.8-21.9-4.1-29.7-8.4-11.7-6.6-18.1-17.4-18.1-30.6 0-10.8 4.3-21.4 12.1-29.9 4.8-5.2 9.4-8.5 17.6-12.7-10.3 1.5-15.2 1.9-42.7 3.9-8.5.6-16.1 1.5-21 2.5l-1-16.1zM725.1 97.6c-.8 2.4-.8 2.4-2 8.5-.6 3-1.3 5.6-2.7 11.1 8.7-.9 15.3-2 20.3-3.6l.4 14.6c-1.4.1-1.6.1-4.1.6-4.6.8-12.3 1.7-20.2 2.3-3.7 12.7-8.2 24.7-13.9 36.8-2.9 6.2-4 8.5-8.9 17.4-1.6 3-1.6 3-2.4 4.6l-14.6-8.1c4.4-5.8 8-11.5 12.3-20.3 4.9-10.1 7.1-15.3 11.9-29.9-5.7.1-6.5.1-8 .1-1.6 0-2.4 0-5.1-.1l-6.7-.1v-14.5c4.6.9 9.4 1.1 17.1 1.1 1.5 0 3.7 0 6.5-.1 2.2-9 3.6-16.6 3.8-22l16.3 1.6zm57.5 102.7c-4.6-5.4-11.9-11.4-19.4-15.7.1 1.1.3 2 .3 2.5 0 4.7-2.2 10.1-5.5 13.4-4.4 4.6-12 7.1-21 7.1-16.7 0-27.6-8.4-27.6-21.3 0-12.8 11.3-21.8 27.4-21.8 3.8 0 6.5.3 11.8 1.1-.4-5.8-.6-10.8-.6-14.6 0-4.9.3-8.6 1-12.8l14.7.8c-1.3 4.7-1.5 7.6-1.5 12.8 0 5.1.2 10.1 1.1 17.4 9.1 4.1 10.4 4.7 20 11.7 1.9 1.3 2.4 1.8 4.4 3.4 1 1 1 1 1.9 1.8l-7 14.2zm-45-23.2c-8.2 0-13.6 3.4-13.6 8.7 0 5.2 4.6 8.2 12.4 8.2 8.6 0 12.8-3.5 12.8-10.6 0-1.3-.3-4.3-.3-4.3-4.4-1.5-7.4-2-11.3-2zm45.6-35.1c-11-7.3-22.3-12.8-36.5-17.7l7.6-12.3c14.9 5.7 24.5 10.1 35.7 17l-6.8 13zM916.9 119.1c-1.1 2.2-1.5 3-2.2 5.7-6.3 24.2-13.8 39.4-26 53.1-12.4 13.9-26 23.2-47.2 32.3-3.6-6.8-5.2-9.3-11.2-15.1 11.2-3.6 18.4-6.9 27.8-12.9 19.8-12.8 32.2-30.7 38.4-55.3h-60.3c-8.5 0-11.4.1-16 .8v-16.5c4.9.8 7.6.9 16.2.9h58.2c5.3 0 8.6-.2 11.2-.6-3-5.4-5.1-8.5-8.5-12.6l9.6-4c5.2 6.3 7.5 9.9 11 17.2l-5.7 2.5 4.7 4.5zm6-8.4c-3.4-6.8-6.3-11.4-10.8-16.9l9.4-4.1c4.8 5.6 7.5 9.5 11 16.5l-9.6 4.5zM976.5 128.2c5.3 9.8 7.9 15.9 12.4 30.1l-14.3 4.6c-3.3-12.8-5.8-19.5-11.5-30.7l13.4-4zm72.8.9c-.8 1.9-1 2.5-1.8 6.5-3.7 17.2-9.4 31.2-17.5 42.2-9.4 12.8-19.9 21-38.7 30.5-3.3-5.6-4.8-7.5-10.1-12.5 8.9-3.4 14.1-6.2 21.6-11.7 14.8-10.8 23.3-23.7 28.8-44 1.6-6.2 2.3-10.6 2.3-14.6l15.4 3.6zm-45.8-6.1c6.7 12.6 9.1 18.1 12.3 29.2l-14.1 4.4c-2.4-9.6-6.2-19.4-11.5-29.8l13.3-3.8zM1190 120c-1.3 1.9-1.8 3-3.2 7.6-5.8 19.3-14.8 36.4-26 48.9-11.7 13.3-25.6 23.2-45.1 32.2-3.6-6.3-5.2-8.5-10.8-13.3 12.7-5.2 19.8-9 27.8-14.9 18.1-13.4 30-30.8 37-53.5l-38.2.6c-7.7 12.3-17.6 23.2-29.7 32.4-3.8-5.2-5.7-6.8-12.3-10.9 14.4-9.9 23.6-20 32.8-36.8 3.9-7.2 6-12.2 6.5-16.7l17.4 3.4c-.7 1.1-.7 1.1-2.1 3.9-.4.6-.4.6-1.7 3.6-.4.8-.4.8-1.6 3.3-.8 1.8-.8 1.8-2 4.1 1.7-.1 3.7-.3 6.1-.3l27.8-.4c4.9 0 6.3-.2 9.3-1.3l8 8.1zM1253 140.2c6.7 5.6 10.5 9 15.7 14.1 7 7.1 7 7.1 7.9 7.9 6.6-5.6 11.9-10.7 16.6-16 5.4-6.1 12.4-15.6 15.5-20.7.4-.6.4-.6.8-1.1.1-.4.1-.4.3-.6-1.3.1-3.2.3-5.8.3h-60.400000000000006c-10.3.1-11.5.1-16.2.6v-16.1c5 .8 7.9.9 16.5.9l70.5-.1c5.5 0 7.3-.1 10.5-1l8.9 10c-1.9 2-2.7 2.9-5.6 7.5-12 19.4-25.4 35-40.9 48 5.3 6.1 10.1 12.2 16.7 21.2l-13.3 10.7c-7.1-11.4-13.8-20.2-24.5-31.9-9.8-10.8-16.1-17-25.4-24.5l12.2-9.2zM1360.6 143.7c5.6.8 8 .9 20.5.9h67.6c12.5 0 14.9-.1 20.5-.9v17.6c-5.1-.6-6.5-.6-20.7-.6h-67.3c-14.2 0-15.6 0-20.7.6v-17.6zM1598.8 120c-1.3 1.9-1.8 3-3.2 7.6-5.8 19.3-14.8 36.4-26 48.9-11.7 13.3-25.6 23.2-45.1 32.2-3.5-6.3-5.2-8.5-10.8-13.3 12.7-5.2 19.8-9 27.8-14.9 18.1-13.4 30-30.8 37-53.5l-38.1.6c-7.7 12.3-17.6 23.2-29.7 32.4-3.8-5.2-5.7-6.8-12.3-10.9 14.4-9.9 23.6-20 32.8-36.8 3.9-7.2 6-12.2 6.5-16.7l17.3 3.4c-.8 1.1-.8 1.1-2.2 3.9-.4.6-.4.6-1.6 3.6-.4.8-.4.8-1.7 3.3-.8 1.8-.8 1.8-2 4.1 1.7-.1 3.7-.3 6.1-.3l27.8-.4c4.9 0 6.3-.2 9.2-1.3l8.2 8.1z"/></svg>